# xmcd
#
# Track frame offsets:
#	150
#	15652
#	29259
#	46734
#	60209
#	76122
#	95139
#	111307
#	126825
#	144215
#	163335
#	177785
#	196473
#	209076
#	223764
#	251524
#
# Disc length: 3382 seconds
#
# Revision: 0
# Processed by: cddbd v1.5.1PL2 Copyright (c) Steve Scherf et al.
# Submitted via: audiograbber 1.83.01
#
DISCID=df0d3410
DTITLE=Various Artist - PR09
DYEAR=1900
DGENRE=Karaoke
TTITLE0=Morgan, Lorrie - I Didn't Know My Own Strength
TTITLE1=Loveless, Patty - I Try To Think About Elvis
TTITLE2=Troccoli, Kathy - If I'm Not In Love
TTITLE3=Sawyer Brown - Step That Step
TTITLE4=Blackhawk - Every Once In A While
TTITLE5=Hill, Faith - Piece Of My Heart
TTITLE6=McEntire, Reba - Why Haven't I Heard From You
TTITLE7=Judds, The - Grandpa Tell Me About The Good Old Days
TTITLE8=Travis, Randy - Forever and Ever Amen
TTITLE9=Alabama - Mountain Music
TTITLE10=Strait, George - Ocean Front Property
TTITLE11=Montgomery, John Michael - I Love The Way You Love Me
TTITLE12=Yearwood, Trisha - That's What I Like About You
TTITLE13=Dixie Chicks, The - Let 'Er Rip
TTITLE14=Montgomery, John Michael - Home To You
TTITLE15=Data - Data Track
EXTD=
EXTT0=
EXTT1=
EXTT2=
EXTT3=
EXTT4=
EXTT5=
EXTT6=
EXTT7=
EXTT8=
EXTT9=
EXTT10=
EXTT11=
EXTT12=
EXTT13=
EXTT14=
EXTT15=
PLAYORDER=
